<svg width="24" height="24" viewBox="0 0 24 24" fill="none" xmlns="http://www.w3.org/2000/svg">
<path d="M19 12.4999C19 11.2679 18.954 10.0469 18.862 8.83794C18.7912 7.88009 18.3787 6.97953 17.6996 6.30038C17.0204 5.62123 16.1199 5.2087 15.162 5.13794C12.7241 4.95402 10.2759 4.95402 7.838 5.13794C6.88015 5.2087 5.9796 5.62123 5.30045 6.30038C4.6213 6.97953 4.20876 7.88009 4.138 8.83794C4.121 9.05794 4.106 9.27894 4.092 9.49994M19 12.4999L22 9.49994M19 12.4999L16 9.49994M4 12.4999C4 13.7319 4.046 14.9529 4.138 16.1619C4.20876 17.1198 4.6213 18.0203 5.30045 18.6995C5.9796 19.3786 6.88015 19.7912 7.838 19.8619C10.2759 20.0459 12.7241 20.0459 15.162 19.8619C16.1199 19.7912 17.0204 19.3786 17.6996 18.6995C18.3787 18.0203 18.7912 17.1198 18.862 16.1619C18.879 15.9419 18.894 15.7209 18.908 15.4999M4 12.4999L7 15.4999M4 12.4999L1 15.4999" stroke="white" stroke-width="1.5" stroke-linecap="round" stroke-linejoin="round"/>
</svg>
