<svg width="24" height="24" viewBox="0 0 24 24" fill="none" xmlns="http://www.w3.org/2000/svg">
<path d="M2.98499 19.644V14.652M2.98499 14.652H7.97699M2.98499 14.652L6.16499 17.835C7.1891 18.8591 8.46478 19.5956 9.86377 19.9704C11.2628 20.3452 12.7358 20.3451 14.1347 19.9701C15.5337 19.5951 16.8092 18.8584 17.8332 17.8341C18.8571 16.8099 19.6763 15.3057 19.968 14.135C20.2597 12.9643 20.5 10.5 20 9.5C19.5 8.5 18.5 6.83102 17.834 6.165C17.168 5.49898 15.5342 4.40439 14.1352 4.02961C12.7362 3.65482 11.2632 3.65493 9.86425 4.02992C8.46532 4.40492 7.18975 5.14159 6.16578 6.16587C5.14182 7.19015 4.40555 8.46595 4.03099 9.865" stroke="black" stroke-width="1.5" stroke-linecap="round" stroke-linejoin="round"/>
</svg>
